<?xml version="1.0" encoding="utf-8"?>
<!-- Generator: Adobe Illustrator 22.1.0, SVG Export Plug-In . SVG Version: 6.00 Build 0)  -->
<svg version="1.1" id="Layer_1" xmlns="http://www.w3.org/2000/svg" xmlns:xlink="http://www.w3.org/1999/xlink" x="0px" y="0px"
	 viewBox="0 0 61.2 42.8" style="enable-background:new 0 0 61.2 42.8;" xml:space="preserve">
<style type="text/css">
	.st0{fill:none;stroke:#FFFFFF;stroke-width:3;}
	.st1{fill:none;stroke:#FFFFFF;stroke-width:4;}
</style>
<title>Untitled</title>
<desc>Created with Sketch.</desc>
<g id="Page-1">
	<polyline id="Path-2-Copy" class="st0" points="35.3,18.3 21.4,18.3 21.4,13.4 6.7,23.5 21.3,33.8 21.2,28.2 35.2,28.2 	"/>
	<g id="Page-1_1_">
		<polyline id="Path-2-Copy_1_" class="st0" points="24.5,23.1 38.6,23.1 38.5,28.7 53,18.3 38.4,8.2 38.4,13.2 24.5,13.2 		"/>
	</g>
</g>
<path class="st1" d="M50.9,41.2h-41c-4.7,0-8.6-3.9-8.6-8.6V10.1c0-4.7,3.9-8.6,8.6-8.6h41c4.7,0,8.6,3.9,8.6,8.6v22.5
	C59.5,37.4,55.6,41.2,50.9,41.2z"/>
</svg>
