<?xml version="1.0" encoding="utf-8"?>
<!-- Generator: Adobe Illustrator 22.1.0, SVG Export Plug-In . SVG Version: 6.00 Build 0)  -->
<svg version="1.1" id="Layer_1" xmlns="http://www.w3.org/2000/svg" xmlns:xlink="http://www.w3.org/1999/xlink" x="0px" y="0px"
	 viewBox="0 0 92.3 42.8" style="enable-background:new 0 0 92.3 42.8;" xml:space="preserve">
<style type="text/css">
	.st0{fill:none;stroke:#000000;stroke-width:2;}
	.st1{fill:#231F20;}
</style>
<title>Untitled</title>
<desc>Created with Sketch.</desc>
<path class="st0" d="M82.2,42.2H9.5c-4.9,0-8.9-4-8.9-8.9V10c0-4.9,4-8.9,8.9-8.9h72.7c4.9,0,8.9,4,8.9,8.9v23.3
	C91.1,38.2,87.1,42.2,82.2,42.2z"/>
<path class="st1" d="M34.8,37.4H12.7c-3.5,0-6.4-2.9-6.4-6.4V12.9c0-3.5,2.9-6.4,6.4-6.4h22.1c3.5,0,6.4,2.9,6.4,6.4V31
	C41.2,34.5,38.3,37.4,34.8,37.4z"/>
</svg>
